<svg width="24" height="24" viewBox="0 0 24 24" fill="none" xmlns="http://www.w3.org/2000/svg">
<path d="M12 13.125C12.6213 13.125 13.125 12.6213 13.125 12C13.125 11.3787 12.6213 10.875 12 10.875C11.3787 10.875 10.875 11.3787 10.875 12C10.875 12.6213 11.3787 13.125 12 13.125Z" fill="#767F8C" stroke="#767F8C"/>
<path d="M12 6.65039C12.6213 6.65039 13.125 6.14671 13.125 5.52539C13.125 4.90407 12.6213 4.40039 12 4.40039C11.3787 4.40039 10.875 4.90407 10.875 5.52539C10.875 6.14671 11.3787 6.65039 12 6.65039Z" fill="#767F8C" stroke="#767F8C"/>
<path d="M12 19.6094C12.6213 19.6094 13.125 19.1057 13.125 18.4844C13.125 17.8631 12.6213 17.3594 12 17.3594C11.3787 17.3594 10.875 17.8631 10.875 18.4844C10.875 19.1057 11.3787 19.6094 12 19.6094Z" fill="#767F8C" stroke="#767F8C"/>
</svg>
