<svg width="56" height="56" viewBox="0 0 56 56" fill="none" xmlns="http://www.w3.org/2000/svg">
<path d="M43.7517 49H12.25C11.7859 49 11.3408 48.8156 11.0126 48.4874C10.6844 48.1593 10.5 47.7141 10.5 47.25V8.75C10.5 8.28587 10.6844 7.84075 11.0126 7.51256C11.3408 7.18437 11.7859 7 12.25 7H33.2517L45.5017 19.25V47.25C45.5017 47.4798 45.4564 47.7074 45.3685 47.9197C45.2806 48.132 45.1516 48.3249 44.9891 48.4874C44.8266 48.6499 44.6337 48.7789 44.4214 48.8668C44.2091 48.9547 43.9815 49 43.7517 49Z" stroke="#0A65CC" stroke-width="3" stroke-linecap="round" stroke-linejoin="round"/>
<path d="M33.2461 7V19.25H45.4978" stroke="#0A65CC" stroke-width="3" stroke-linecap="round" stroke-linejoin="round"/>
<path d="M21 29.75H35" stroke="#0A65CC" stroke-width="3" stroke-linecap="round" stroke-linejoin="round"/>
<path d="M21 36.75H35" stroke="#0A65CC" stroke-width="3" stroke-linecap="round" stroke-linejoin="round"/>
</svg>
